<svg width="27" height="15" viewBox="0 0 27 15" fill="none" xmlns="http://www.w3.org/2000/svg">
<path fill-rule="evenodd" clip-rule="evenodd" d="M3 0H0V3H3V0ZM14.9999 0H11.9999V3H14.9999V0ZM11.9999 5.99999H14.9999V8.99999H11.9999V5.99999ZM14.9999 12H11.9999V15H14.9999V12ZM0 12H3V15H0V12ZM21.0001 0H18.0001V3H21.0001L21 5.99999H24V2.99999L27 3V0H24V3H21.0001V0ZM18.0001 5.99999H21.0001V8.99999H18.0001V5.99999ZM9.00004 5.99999H6.00004V8.99999H9.00004V5.99999ZM18.0001 12H21.0001V15H18.0001V12ZM24 5.99999H27V8.99999H24V5.99999ZM27 12H24V15H27V12ZM15 2.99999H18V5.99999H15V2.99999ZM6.00005 2.99999H3.00005V5.99999H6.00005V2.99999ZM15 9.00001H18V12H15V9.00001ZM6.00005 9.00001H3.00005V12H6.00005V9.00001ZM24 9.00001H21V12H24V9.00001Z" fill="#0A0E12"/>
</svg>
